# AST/ASF file generated using VICON BodyLanguage
# -----------------------------------------------
:version 1.10
:name VICON
:units
  mass 1.0
  length 0.45
  angle deg
:documentation
   .ast/.asf automatically generated from VICON data using
   VICON BodyBuilder and BodyLanguage model FoxedUp or BRILLIANT.MOD
:root
   order TX TY TZ RX RY RZ
   axis XYZ
   position 0 0 0  
   orientation 0 0 0 
:bonedata
  begin
     id 1 
     name lhipjoint
     direction 0.627457 -0.725269 0.283342 
     length 2.53237 
     axis 0 0 0  XYZ
  end
  begin
     id 2 
     name lfemur
     direction 0.34202 -0.939693 0  
     length 7.32496  
     axis 0 0 20  XYZ
    dof rx ry rz
    limits (-160.0 20.0)
           (-70.0 70.0)
           (-60.0 70.0)
  end
  begin
     id 3 
     name ltibia
     direction 0.34202 -0.939693 0   
     length 7.69674   
     axis 0 0 20   XYZ
    dof rx
    limits (-10.0 170.0)
  end
  begin
     id 4 
     name lfoot
     direction 0.127289 -0.349722 0.928166   
     length 1.8612   
     axis -90 7.62852e-016 20   XYZ
    dof rx rz
    limits (-45.0 90.0)
           (-70.0 20.0)
  end
  begin
     id 5 
     name ltoes
     direction 1.53561e-011 -4.21864e-011 1   
     length 0.925608   
     axis -90 7.62852e-016 20   XYZ
    dof rx
    limits (-90.0 20.0)
  end
  begin
     id 6 
     name rhipjoint
     direction -0.609094 -0.738725 0.288599   
     length 2.48624  
     axis 0 0 0  XYZ 
  end
  begin
     id 7 
     name rfemur
     direction -0.34202 -0.939693 0   
     length 7.44259   
     axis 0 0 -20   XYZ
    dof rx ry rz
    limits (-160.0 20.0)
           (-70.0 70.0)
           (-70.0 60.0)
  end
  begin
     id 8 
     name rtibia
     direction -0.34202 -0.939693 0   
     length 7.7781   
     axis 0 0 -20   XYZ
    dof rx
    limits (-10.0 170.0)
 end
 begin
     id 9 
     name rfoot
     direction -0.107015 -0.294021 0.949789   
     length 2.14741  
     axis -90 -7.62852e-016 -20   XYZ
    dof rx rz
    limits (-45.0 90.0)
           (-20.0 70.0)
  end
  begin
     id 10 
     name rtoes
     direction -1.53497e-011 -4.21924e-011 1   
     length 1.0706   
     axis -90 -7.62852e-016 -20   XYZ
    dof rx
    limits (-90.0 20.0)
  end
  begin
     id 11 
     name lowerback
     direction -0.0142066 0.998112 -0.0597545   
     length 1.86627   
     axis 0 0 0   XYZ
    dof rx ry rz
    limits (-20.0 45.0)
           (-30.0 30.0)
           (-30.0 30.0)
  end
  begin
     id 12 
     name upperback
     direction 0.00547294 0.999744 0.0219437   
     length 1.86272   
     axis 0 0 0   XYZ
    dof rx ry rz
    limits (-20.0 45.0)
           (-30.0 30.0)
           (-30.0 30.0)
  end
  begin
     id 13 
     name thorax
     direction 0.0116162 0.998704 0.0495538   
     length 1.8703   
     axis 0 0 0   XYZ
    dof rx ry rz
    limits (-20.0 45.0)
           (-30.0 30.0)
           (-30.0 30.0)
  end
  begin
     id 14 
     name lowerneck
     direction -0.0106574 0.998739 0.0490586   
     length 1.8074   
     axis 0 0 0   XYZ
    dof rx ry rz
    limits (-20.0 45.0)
           (-30.0 30.0)
           (-30.0 30.0)
  end
  begin
     id 15 
     name upperneck
     direction 0.030527 0.976587 -0.212944   
     length 1.80681   
     axis 0 0 0   XYZ
    dof rx ry rz
    limits (-20.0 45.0)
           (-30.0 30.0)
           (-30.0 30.0)
  end
  begin
     id 16
     name head
     direction 0.00869225 0.997035 -0.0764531  
     length 1.8313  
     axis 0 0 0   XYZ
    dof rx ry rz
    limits (-20.0 45.0)
           (-30.0 30.0)
           (-30.0 30.0)
  end
  begin
     id 17 
     name lclavicle
     direction 0.915958 0.399447 0.0382386  
     length 3.78965  
     axis 0 0 0   XYZ
    dof ry rz
    limits (-20.0 10.0)
           (0.0 20.0)
  end
  begin
     id 18 
     name lhumerus
     direction 1 -4.48967e-011 3.19303e-027   
     length 4.78095   
     axis -180 -30 -90   XYZ
    dof rx ry rz
    limits (-60.0 90.0)
           (-90.0 90.0)
           (-90.0 90.0)
  end
  begin
     id 19
     name lradius
     direction 1 -4.48967e-011 -3.77974e-027   
     length 3.58615   
     axis -180 -30 -90   XYZ
    dof rx
    limits (-10.0 170.0)
  end
  begin
     id 20
     name lwrist
     direction 1 -4.48927e-011 1.2807e-027   
     length 1.79307   
     axis 1.91374e-015 90 90   XYZ
    dof ry
    limits (-180.0 0.0)
 end
  begin
     id 21 
     name lhand
     direction 1 -4.49036e-011 2.5614e-027   
     length 0.659812   
     axis -1.63439e-015 90 90   XYZ
    dof rx rz
    limits (-90.0 90.0)
           (-45.0 45.0)
  end
  begin
     id 22 
     name lfingers
     direction 1 -4.49052e-011 5.1228e-027   
     length 0.531957   
     axis -3.26879e-015 90 90   XYZ
    dof rx
    limits (0.0 90.0)
  end
  begin
     id 23
     name lthumb
     direction 0.707107 -6.35012e-011 0.707107   
     length 0.763787   
     axis -90 45 2.85299e-015   XYZ
    dof rx rz
    limits (-45.0 45.0)
           (-45.0 45.0)
  end
  begin
     id 24 
     name rclavicle
     direction -0.895351 0.435135 0.0948887   
     length 3.70497  
     axis 0 0 0   XYZ 
    dof ry rz
    limits (-10.0 20.0)
           (-20.0 0.0)
  end
  begin
     id 25 
     name rhumerus
     direction -1 -4.48971e-011 2.38946e-027  
     length 4.48913   
     axis -180 30 90   XYZ
    dof rx ry rz
    limits (-90.0 60.0)
           (-90.0 90.0)
           (-90.0 90.0)
  end
  begin
     id 26 
     name rradius
     direction -1 -4.4895e-011 4.38668e-027   
     length 3.7051   
     axis -180 30 90   XYZ
    dof rx
    limits (-10.0 170.0)
  end
  begin
     id 27 
     name rwrist
     direction -1 -4.49007e-011 1.2807e-027   
     length 1.85255   
     axis 1.91374e-015 -90 -90   XYZ
    dof ry
    limits (-180.0 0.0)
  end
  begin
     id 28
     name rhand
     direction -1 -4.48851e-011 2.5614e-027   
     length 0.449136   
     axis -1.63439e-015 -90 -90   XYZ
    dof rx rz
    limits (-90.0 90.0)
           (-45.0 45.0)
  end
  begin
     id 29
     name rfingers
     direction -1 -4.49128e-011 5.1228e-027   
     length 0.362105   
     axis -3.26879e-015 -90 -90   XYZ
    dof rx
    limits (0.0 90.0)
  end
  begin
     id 30
     name rthumb
     direction -0.707107 -6.34851e-011 0.707107   
     length 0.519912   
     axis -90 -45 -2.85299e-015   XYZ
    dof rx rz
    limits (-45.0 45.0)
           (-45.0 45.0)
  end
:hierarchy
  begin
    root lhipjoint rhipjoint lowerback
    lhipjoint lfemur
    lfemur ltibia
    ltibia lfoot
    lfoot ltoes
    rhipjoint rfemur
    rfemur rtibia
    rtibia rfoot
    rfoot rtoes
    lowerback upperback
    upperback thorax
    thorax lowerneck lclavicle rclavicle
    lowerneck upperneck
    upperneck head
    lclavicle lhumerus
    lhumerus lradius
    lradius lwrist
    lwrist lhand lthumb
    lhand lfingers
    rclavicle rhumerus
    rhumerus rradius
    rradius rwrist
    rwrist rhand rthumb
    rhand rfingers
  end

#!OML:ASF I:\Actors\actors\Patient Classification 2\Patient 1\Session 1\actor1.ASF
:FULLY-SPECIFIED
:DEGREES
29
root -0.65547 18.6868 5.81474 2.62452 -2.6727 0.208778
lowerback 1.94921 0.860928 -2.73143
upperback -2.91454 1.05102 0.24368
thorax -4.15271 0.61228 1.72362
lowerneck -14.8133 -2.75042 -1.5079
upperneck 19.9219 -4.25495 3.54559
head 8.7833 -1.74235 0.943965
rclavicle -3.02836e-015 1.16289e-014
rhumerus -49.9244 0.908721 -87.4001
rradius 42.9971
rwrist 18.8741
rhand -5.52842 -36.3764
rfingers 7.12502
rthumb 20.2856 -65.3371
lclavicle -3.02836e-015 1.16289e-014
lhumerus -41.4782 -3.8605 91.6018
lradius 35.7447
lwrist -9.10257
lhand 0.0505566 -25.3542
lfingers 7.12502
lthumb 25.6388 2.93958
rfemur 0 0 0
rtibia 0
rfoot 0 0
rtoes 0
lfemur -3.46528 -8.27193 -14.7348
ltibia 19.3016
lfoot -23.3324 15.8037
ltoes -55.0624
30
root -0.655201 18.6866 5.81169 2.66468 -2.70083 0.175291
lowerback 1.95877 0.87443 -2.74934
upperback -2.91066 1.06931 0.275829
thorax -4.15612 0.622506 1.76571
lowerneck -14.7777 -2.73304 -1.57953
upperneck 19.8118 -4.21615 3.57864
head 8.74042 -1.72789 0.972184
rclavicle -6.72451e-015 -4.91992e-015
rhumerus -49.9061 0.934067 -87.378
rradius 42.9129
rwrist 18.9228
rhand -5.58356 -36.4304
rfingers 7.12502
rthumb 20.2326 -65.3966
lclavicle -6.72451e-015 -4.91992e-015
lhumerus -41.259 -3.42929 91.4295
lradius 35.352
lwrist -9.52494
lhand 0.0595552 -25.5507
lfingers 7.12502
lthumb 25.6474 2.74189
rfemur 0 0 0
rtibia 0
rfoot 0 0
rtoes 0
lfemur -3.51052 -8.27206 -14.6979
ltibia 19.3002
lfoot -23.3295 15.8352
ltoes -55.0518
31
root -0.655527 18.6868 5.80852 2.69645 -2.68997 0.132607
lowerback 1.94922 0.881901 -2.72889
upperback -2.9065 1.08055 0.278394
thorax -4.14655 0.627341 1.75643
lowerneck -14.7002 -2.71895 -1.61331
upperneck 19.6996 -4.19718 3.63728
head 8.68962 -1.71776 1.00083
rclavicle -1.18774e-014 7.7526e-015
rhumerus -49.9302 0.89858 -87.3708
rradius 42.8485
rwrist 19.0217
rhand -5.58613 -36.4744
rfingers 7.12502
rthumb 20.2302 -65.4409
lclavicle -1.18774e-014 7.7526e-015
lhumerus -41.0613 -3.06387 91.2233
lradius 34.9692
lwrist -9.95321
lhand 0.0811736 -25.6201
lfingers 7.12502
lthumb 25.6681 2.66944
rfemur 0 0 0
rtibia 0
rfoot 0 0
rtoes 0
lfemur -3.55817 -8.31652 -14.6437
ltibia 19.3168
lfoot -23.3788 15.8231
ltoes -54.9644
32
root -0.655231 18.6872 5.80527 2.72059 -2.63179 0.107496
lowerback 1.96204 0.885454 -2.70348
upperback -2.92513 1.08487 0.256026
thorax -4.17238 0.628845 1.71848
lowerneck -14.5925 -2.73249 -1.59705
upperneck 19.6047 -4.22467 3.6736
head 8.63908 -1.72834 1.00839
rclavicle 6.08778e-015 -1.78906e-014
rhumerus -50.0092 0.834289 -87.3793
rradius 42.7967
rwrist 19.1062
rhand -5.5314 -36.5592
rfingers 7.12502
rthumb 20.2828 -65.5201
lclavicle 6.08778e-015 -1.78906e-014
lhumerus -40.9777 -2.84478 91.0424
lradius 34.6785
lwrist -10.2601
lhand 0.00335039 -25.5094
lfingers 7.12502
lthumb 25.5936 2.79091
rfemur 0 0 0
rtibia 0
rfoot 0 0
rtoes 0
lfemur -3.61677 -8.33407 -14.6016
ltibia 19.3434
lfoot -23.356 15.7817
ltoes -54.969
33
root -0.653706 18.6879 5.80224 2.73411 -2.58071 0.0917149
lowerback 2.01469 0.883547 -2.68992
upperback -2.95188 1.08094 0.254571
thorax -4.22958 0.62744 1.70857
lowerneck -14.5604 -2.7317 -1.59467
upperneck 19.5654 -4.21834 3.65441
head 8.61917 -1.72811 1.00268
rclavicle -1.67197e-014 1.92821e-014
rhumerus -50.0718 0.844657 -87.3803
rradius 42.7357
rwrist 19.1383
rhand -5.46011 -36.5157
rfingers 7.12502
rthumb 20.3513 -65.4694
lclavicle -1.67197e-014 1.92821e-014
lhumerus -40.9499 -2.61646 90.9008
lradius 34.443
lwrist -10.5036
lhand 0.0249832 -25.439
lfingers 7.12502
lthumb 25.6143 2.8583
rfemur 0 0 0
rtibia 0
rfoot 0 0
rtoes 0
lfemur -3.66521 -8.23096 -14.5716
ltibia 19.365
lfoot -23.253 15.7331
ltoes -55.1396
34
root -0.651964 18.6884 5.79951 2.73194 -2.57515 0.102788
lowerback 2.06117 0.897638 -2.69001
upperback -2.95723 1.09805 0.246812
thorax -4.26225 0.636272 1.69885
lowerneck -14.5895 -2.72174 -1.66395
upperneck 19.5696 -4.19686 3.6956
head 8.62771 -1.71835 1.03026
rclavicle -7.05375e-015 -3.37934e-015
rhumerus -50.0856 0.843484 -87.3738
rradius 42.6739
rwrist 19.2047
rhand -5.33502 -36.5078
rfingers 7.12502
rthumb 20.4715 -65.4485
lclavicle -7.05375e-015 -3.37934e-015
lhumerus -40.9303 -2.44637 90.7887
lradius 34.2642
lwrist -10.7397
lhand 0.186293 -25.4937
lfingers 7.12502
lthumb 25.7688 2.7813
rfemur 0 0 0
rtibia 0
rfoot 0 0
rtoes 0
lfemur -3.68772 -8.13034 -14.5845
ltibia 19.3844
lfoot -23.1788 15.7002
ltoes -55.2699
35
root -0.651355 18.6884 5.79611 2.73063 -2.58525 0.128984
lowerback 2.07854 0.918432 -2.73048
upperback -2.94519 1.12355 0.24004
thorax -4.26169 0.649988 1.71286
lowerneck -14.6002 -2.72929 -1.75564
upperneck 19.5606 -4.2105 3.8114
head 8.63175 -1.71939 1.08273
rclavicle 2.59352e-015 -1.0138e-014
rhumerus -50.0794 0.814937 -87.3518
rradius 42.6147
rwrist 19.3028
rhand -5.22967 -36.5903
rfingers 7.12502
rthumb 20.5727 -65.5201
lclavicle 2.59352e-015 -1.0138e-014
lhumerus -40.8734 -2.34729 90.7135
lradius 34.0648
lwrist -10.9594
lhand 0.255248 -25.5214
lfingers 7.12502
lthumb 25.8348 2.74403
rfemur 0 0 0
rtibia 0
rfoot 0 0
rtoes 0
lfemur -3.71243 -8.12272 -14.6147
ltibia 19.4036
lfoot -23.1401 15.6768
ltoes -55.2533
36
root -0.650077 18.689 5.79279 2.73154 -2.58344 0.141994
lowerback 2.07471 0.927728 -2.76103
upperback -2.92462 1.13526 0.244386
thorax -4.23952 0.656355 1.73404
lowerneck -14.6416 -2.72289 -1.77404
upperneck 19.5684 -4.20671 3.85467
head 8.64328 -1.71372 1.10035
rclavicle -1.02032e-014 -1.67973e-014
rhumerus -50.085 0.816081 -87.3246
rradius 42.5737
rwrist 19.3437
rhand -5.20833 -36.588
rfingers 7.12502
rthumb 20.5932 -65.5157
lclavicle -1.02032e-014 -1.67973e-014
lhumerus -40.7808 -2.1993 90.6444
lradius 33.8185
lwrist -11.1573
lhand 0.167244 -25.5885
lfingers 7.12502
lthumb 25.7506 2.6891
rfemur 0 0 0
rtibia 0
rfoot 0 0
rtoes 0
lfemur -3.73664 -8.12461 -14.6269
ltibia 19.4142
lfoot -23.1185 15.6365
ltoes -55.1911
37
root -0.646822 18.6892 5.7902 2.71298 -2.57749 0.140856
lowerback 2.0825 0.93747 -2.73968
upperback -2.89799 1.14927 0.244771
thorax -4.21645 0.662074 1.72177
lowerneck -14.7098 -2.71179 -1.75491
upperneck 19.5965 -4.19134 3.83193
head 8.66386 -1.70609 1.09059
rclavicle 5.49764e-015 -2.20651e-014
rhumerus -50.1135 0.833124 -87.3061
rradius 42.575
rwrist 19.3419
rhand -5.22882 -36.6106
rfingers 7.12502
rthumb 20.5736 -65.5403
lclavicle 5.49764e-015 -2.20651e-014
lhumerus -40.7486 -2.14126 90.6258
lradius 33.6884
lwrist -11.2309
lhand 0.0578813 -25.5703
lfingers 7.12502
lthumb 25.6458 2.72243
rfemur 0 0 0
rtibia 0
rfoot 0 0
rtoes 0
lfemur -3.72551 -8.10867 -14.6338
ltibia 19.4161
lfoot -23.1281 15.5715
ltoes -55.163
38
root -0.643704 18.6877 5.7882 2.67682 -2.58153 0.116204
lowerback 2.11158 0.949031 -2.69248
upperback -2.872 1.16667 0.259433
thorax -4.206 0.669088 1.70921
lowerneck -14.7564 -2.71673 -1.77101
upperneck 19.6288 -4.19092 3.81263
head 8.68317 -1.70803 1.08629
rclavicle 3.35449e-016 -8.34896e-015
rhumerus -50.1367 0.883049 -87.287
rradius 42.6006
rwrist 19.2838
rhand -5.18807 -36.7383
rfingers 7.12502
rthumb 20.6127 -65.6638
lclavicle 3.35449e-016 -8.34896e-015
lhumerus -40.8137 -2.22064 90.6911
lradius 33.7413
lwrist -11.1732
lhand 0.0759735 -25.3521
lfingers 7.12502
lthumb 25.6631 2.93814
rfemur 0 0 0
rtibia 0
rfoot 0 0
rtoes 0
lfemur -3.68532 -8.13538 -14.6242
ltibia 19.4169
lfoot -23.1879 15.5429
ltoes -55.1525
